<?xml version="1.0" standalone="no"?>
<!DOCTYPE svg PUBLIC "-//W3C//DTD SVG 20010904//EN"
 "http://www.w3.org/TR/2001/REC-SVG-20010904/DTD/svg10.dtd">
<svg version="1.0" xmlns="http://www.w3.org/2000/svg"
 width="300.000000pt" height="314.000000pt" viewBox="0 0 300.000000 314.000000"
 preserveAspectRatio="xMidYMid meet">
<metadata>
Created by potrace 1.10, written by Peter Selinger 2001-2011
</metadata>
<g transform="translate(0.000000,314.000000) scale(0.100000,-0.100000)"
fill="#000000" stroke="none">
<path d="M1370 2984 c-205 -25 -374 -74 -531 -155 -411 -211 -690 -587 -775
-1044 -26 -137 -26 -373 0 -510 106 -571 536 -1029 1090 -1160 277 -66 551
-54 814 34 424 142 774 492 917 917 56 166 69 253 69 464 0 211 -13 298 -69
467 -164 488 -587 859 -1098 964 -99 20 -335 33 -417 23z m301 -30 c4 -2 40
-8 80 -14 41 -6 105 -20 144 -31 87 -26 248 -89 256 -102 3 -5 9 -8 13 -7 7 2
142 -81 206 -126 156 -111 341 -339 422 -519 69 -155 77 -176 94 -255 8 -36
17 -74 19 -85 53 -223 28 -559 -60 -785 -53 -138 -143 -300 -204 -369 -11 -13
-21 -27 -21 -31 0 -3 -42 -49 -94 -102 -139 -141 -312 -257 -488 -327 -71 -28
-205 -68 -253 -76 -11 -2 -33 -6 -50 -10 -16 -4 -102 -9 -191 -12 -182 -6
-303 9 -459 57 -109 34 -243 90 -283 119 -17 11 -33 21 -37 21 -12 0 -172 116
-218 158 -86 78 -191 197 -240 275 -221 344 -285 705 -202 1127 22 113 113
330 184 440 66 102 174 228 263 307 78 69 296 213 322 213 7 0 16 3 20 8 4 4
11 7 14 7 4 1 30 11 57 23 54 25 200 68 262 78 21 3 40 7 43 9 3 2 41 6 85 10
44 4 82 9 85 12 5 5 221 -7 231 -13z"/>
<path d="M1412 2618 c-8 -8 -12 -48 -12 -115 0 -61 -4 -104 -10 -104 -5 -1
-13 -2 -17 -4 -5 -1 -21 -5 -38 -10 -16 -4 -55 -20 -86 -36 -106 -53 -173
-142 -214 -284 -17 -57 -24 -224 -12 -270 24 -92 81 -184 151 -245 48 -42 167
-118 236 -151 231 -111 260 -132 278 -207 34 -141 -34 -226 -184 -226 -62 0
-77 4 -114 28 -49 32 -81 95 -88 171 -7 83 -12 85 -187 85 -104 0 -155 -4
-163 -12 -29 -29 -1 -204 48 -306 61 -125 173 -216 320 -258 l75 -22 3 -100
c2 -74 7 -103 18 -112 19 -16 150 -16 170 1 10 8 14 37 14 110 0 98 0 100 26
110 15 5 29 8 31 5 7 -6 131 37 181 64 72 38 140 107 178 181 19 38 34 72 33
76 0 5 3 24 7 43 10 49 6 176 -7 235 -19 85 -67 161 -143 231 -39 35 -76 64
-83 64 -7 0 -13 5 -13 10 0 6 -4 10 -9 10 -5 0 -37 16 -70 35 -34 19 -64 35
-66 35 -4 1 -20 7 -105 43 -14 6 -27 11 -30 12 -17 4 -79 41 -98 59 -38 34
-52 71 -53 141 -1 84 21 124 91 160 39 20 105 15 152 -12 41 -25 78 -100 78
-161 0 -78 9 -82 187 -82 108 0 153 4 161 13 20 24 17 105 -9 217 -28 116
-127 253 -219 300 -51 26 -159 60 -191 60 l-27 0 -1 102 c-1 56 -7 108 -13
115 -14 17 -159 18 -176 1z m168 -127 l0 -118 64 -5 c83 -7 179 -51 246 -114
79 -74 129 -193 145 -347 l7 -67 -156 0 -156 0 0 33 c0 52 -28 133 -57 168
-34 41 -79 59 -143 59 -109 0 -180 -81 -180 -202 1 -110 50 -164 211 -233 282
-121 402 -219 454 -370 23 -70 30 -181 15 -257 -36 -185 -147 -290 -362 -342
l-88 -21 0 -112 0 -113 -81 0 -80 0 3 115 c3 98 1 115 -12 115 -32 0 -134 31
-187 57 -31 15 -82 53 -113 84 -83 82 -127 183 -145 336 l-7 62 155 3 155 3 7
-60 c8 -75 27 -121 68 -164 42 -44 84 -61 154 -61 107 0 180 37 209 107 20 46
17 140 -5 189 -24 54 -63 82 -196 144 -139 65 -264 142 -331 203 -96 88 -141
214 -131 367 15 228 141 385 333 417 l46 8 -1 118 -2 117 80 0 81 0 0 -119z"/>
</g>
</svg>
